# xmcd
#
# Track frame offsets:
#	150
#	12525
#	30075
#	42975
#	58875
#	72975
#	92933
#
# Disc length: 1262 seconds
#
# Revision: 1
# Processed by: cddbd v1.5.2PL0 Copyright (c) Steve Scherf et al.
# Submitted via: audiograbber 1.82.01
#
DISCID=5a04ec07
DTITLE=RUNNING FIVE - the letter(single)
DYEAR=1900
DGENRE=
TTITLE0=Parchment Farm
TTITLE1=The Letter
TTITLE2=Eastbound And Down
TTITLE3=Feed Me, Seymour
TTITLE4=What I'm Dreaming Of
TTITLE5=Blue Suede Shoes
TTITLE6=Stelldichein in Oberkrain
EXTD=
EXTT0=
EXTT1=
EXTT2=
EXTT3=
EXTT4=
EXTT5=
EXTT6=
PLAYORDER=
